<?xml version="1.0" encoding="UTF-8" standalone="no"?>
<!-- Created with Inkscape (http://www.inkscape.org/) -->

<svg
   width="80"
   height="40"
   viewBox="0 0 80.000003 40.000001"
   version="1.1"
   id="svg1"
   inkscape:version="1.3.2 (091e20e, 2023-11-25, custom)"
   sodipodi:docname="firekeepers_flag.svg"
   xmlns:inkscape="http://www.inkscape.org/namespaces/inkscape"
   xmlns:sodipodi="http://sodipodi.sourceforge.net/DTD/sodipodi-0.dtd"
   xmlns="http://www.w3.org/2000/svg"
   xmlns:svg="http://www.w3.org/2000/svg">
  <sodipodi:namedview
     id="namedview1"
     pagecolor="#ffffff"
     bordercolor="#999999"
     borderopacity="1"
     inkscape:showpageshadow="2"
     inkscape:pageopacity="0"
     inkscape:pagecheckerboard="0"
     inkscape:deskcolor="#d1d1d1"
     inkscape:document-units="px"
     showgrid="true"
     showguides="false"
     inkscape:zoom="11.588807"
     inkscape:cx="36.630174"
     inkscape:cy="26.189064"
     inkscape:window-width="1920"
     inkscape:window-height="1009"
     inkscape:window-x="1912"
     inkscape:window-y="-8"
     inkscape:window-maximized="1"
     inkscape:current-layer="layer1">
    <inkscape:grid
       id="grid1"
       units="px"
       originx="0"
       originy="0"
       spacingx="1"
       spacingy="1"
       empcolor="#0099e5"
       empopacity="0.30196078"
       color="#0099e5"
       opacity="0.14901961"
       empspacing="5"
       dotted="false"
       gridanglex="30"
       gridanglez="30"
       visible="true" />
  </sodipodi:namedview>
  <defs
     id="defs1" />
  <g
     inkscape:label="Livello 1"
     inkscape:groupmode="layer"
     id="layer1">
    <rect
       style="fill:#008000;stroke:#502d16"
       id="rect4"
       width="80"
       height="40"
       x="0"
       y="0" />
    <path
       style="fill:#d40000;stroke:#800000"
       d="M 40,7.5000007 C 39,10.500001 39,13.5 35,16.5 c 0,-1.000001 0,-2.000001 -1,-4 -3.000001,2.999999 -4,5 -4,9.999999 0,6 5,9 10,10 5,-1 10,-4 10,-10 C 50,16.5 49,17.5 46,14.5 c 1,3 1,4.999999 -1,7.999999 C 43.879398,17.628582 44,12.5 40,7.5000007 Z"
       id="path4"
       sodipodi:nodetypes="ccccccccc"
       inkscape:label="fire" />
    <g
       id="g3"
       inkscape:label="axe"
       transform="matrix(0.92191397,0.91106987,-0.91106987,0.92191397,40.149601,-13.95484)"
       style="stroke:#000000">
      <path
         style="fill:#808080;stroke:#000000"
         d="m 22.542376,11 c 2.16824,-2.2425704 1.707146,-4.5952053 0,-7.0000001 h 0.816951 C 25.127689,6.4114494 25.119829,8.740874 23.328819,11 Z"
         id="path3"
         sodipodi:nodetypes="ccccc" />
      <path
         style="fill:#d38d5f;stroke:#000000"
         d="m 14.999999,34.999999 1,1 h 1 l 1,-1 V 2.9999999 L 16.999999,2 h -1 l -1,0.9999999 z"
         id="path1"
         sodipodi:nodetypes="ccccccccc" />
      <path
         style="fill:#666666;stroke:#000000"
         d="m 15.999999,5.9999999 -1,-1 -1,1 H 12 v 2.9999999 h 1.999999 l 1,1 h 1 1 1 1 l 1,2.0000002 h 3 c 2.677032,-2.877493 2.656285,-5.8784424 0,-9.0000001 h -3 l -1,2 h -1 l -1,1"
         id="path2"
         sodipodi:nodetypes="cccccccccccccccccc" />
    </g>
  </g>
</svg>
